HIERARCHY
ROOT Hips
{
 OFFSET 0.000000 0.000000 0.000000
 CHANNELS 6 Xposition Yposition Zposition Yrotation Xrotation Zrotation
 JOINT Chest
 {
  OFFSET 0.000000 9.588913 -0.003946
  CHANNELS 3 Yrotation Xrotation Zrotation
  JOINT Chest2
  {
   OFFSET 0.000000 9.541882 0.008053
   CHANNELS 3 Yrotation Xrotation Zrotation
   JOINT Chest3
   {
    OFFSET 0.000000 9.501360 0.000000
    CHANNELS 3 Yrotation Xrotation Zrotation
    JOINT Chest4
    {
     OFFSET 0.000000 9.491660 0.000000
     CHANNELS 3 Yrotation Xrotation Zrotation
     JOINT Neck
     {
      OFFSET 0.000000 14.331917 0.000000
      CHANNELS 3 Yrotation Xrotation Zrotation
      JOINT Head
      {
       OFFSET 0.000000 8.884799 0.017034
       CHANNELS 3 Yrotation Xrotation Zrotation
       End Site
       {
        OFFSET 0.000000 16.896195 0.008993
       }
      }
     }
     JOINT RightCollar
     {
      OFFSET -2.923010 9.499495 0.000000
      CHANNELS 3 Yrotation Xrotation Zrotation
      JOINT RightShoulder
      {
       OFFSET -13.795216 0.000000 0.000000
       CHANNELS 3 Yrotation Xrotation Zrotation
       JOINT RightElbow
       {
        OFFSET -30.272209 0.000000 0.000000
        CHANNELS 3 Yrotation Xrotation Zrotation
        JOINT RightWrist
        {
         OFFSET -24.478199 0.000000 0.000000
         CHANNELS 3 Yrotation Xrotation Zrotation
         End Site
         {
          OFFSET -18.090752 0.000000 0.000000
         }
        }
       }
      }
     }
     JOINT LeftCollar
     {
      OFFSET 2.923010 9.499495 0.000000
      CHANNELS 3 Yrotation Xrotation Zrotation
      JOINT LeftShoulder
      {
       OFFSET 13.795216 0.000000 0.000000
       CHANNELS 3 Yrotation Xrotation Zrotation
       JOINT LeftElbow
       {
        OFFSET 30.272209 0.000000 0.000000
        CHANNELS 3 Yrotation Xrotation Zrotation
        JOINT LeftWrist
        {
         OFFSET 24.478199 0.000000 0.000000
         CHANNELS 3 Yrotation Xrotation Zrotation
         End Site
         {
          OFFSET 18.090752 0.000000 0.000000
         }
        }
       }
      }
     }
    }
   }
  }
 }
 JOINT RightHip
 {
  OFFSET -7.826875 0.019532 0.001973
  CHANNELS 3 Yrotation Xrotation Zrotation
  JOINT RightKnee
  {
   OFFSET 0.000000 -40.546152 -0.001885
   CHANNELS 3 Yrotation Xrotation Zrotation
   JOINT RightAnkle
   {
    OFFSET 0.000000 -39.417092 -0.003189
    CHANNELS 3 Yrotation Xrotation Zrotation
    JOINT RightToe
    {
     OFFSET 0.000000 -7.579396 17.243563
     CHANNELS 3 Yrotation Xrotation Zrotation
     End Site
     {
      OFFSET 0.000000 -1.500329 6.694466
     }
    }
   }
  }
 }
 JOINT LeftHip
 {
  OFFSET 7.826875 0.019532 0.001973
  CHANNELS 3 Yrotation Xrotation Zrotation
  JOINT LeftKnee
  {
   OFFSET 0.000000 -40.546152 -0.001885
   CHANNELS 3 Yrotation Xrotation Zrotation
   JOINT LeftAnkle
   {
    OFFSET 0.000000 -39.417092 -0.003189
    CHANNELS 3 Yrotation Xrotation Zrotation
    JOINT LeftToe
    {
     OFFSET 0.000000 -7.579396 17.243563
     CHANNELS 3 Yrotation Xrotation Zrotation
     End Site
     {
      OFFSET 0.000000 -1.500329 6.694466
     }
    }
   }
  }
 }
}
MOTION
Frames: 9
Frame Time: 0.008333
-2.370762 87.851310 -0.723949 -33.471591 2.877366 -5.115984 -2.015287 15.157701 -3.590547 -1.041472 8.685254 -2.003040 -1.353864 10.850326 -2.536154 -1.041491 8.685255 -2.003031 8.765141 18.043654 -1.605775 16.626335 -1.606844 -5.761956 10.315486 -0.395784 -2.608749 8.192741 -10.604481 88.606981 28.806620 4.785097 9.354594 -0.108726 -3.012908 -4.054987 -7.410417 -0.853297 -5.683533 4.499298 -33.882648 -65.553709 0.003442 -8.106027 1.453857 -8.229116 -7.494291 17.788497 -8.083209 -10.998371 11.266332 -0.459062 9.442649 -1.504648 -8.976963 -1.417798 -3.279173 0.051857 0.203015 -0.062703 -6.046178 -20.548206 7.691349 -5.343444 24.092141 -1.428154 3.948249 -5.447537 -1.980747 -0.054816 0.023563 -0.048042
-2.329667 87.827958 -0.867663 -33.264161 3.140408 -5.159444 -2.025826 15.245913 -3.612171 -1.045377 8.736416 -2.015301 -1.359395 10.914213 -2.551860 -1.045394 8.736418 -2.015292 8.756249 18.051220 -1.595681 16.606048 -1.595547 -5.739740 10.403897 -0.358102 -2.598626 8.235883 -10.647526 88.555017 28.810858 4.717906 9.303768 -0.106747 -3.012894 -4.050361 -7.398491 -0.846672 -5.593078 4.137720 -34.144198 -65.269756 -0.183123 -8.014230 1.501788 -8.235719 -7.529472 17.877249 -8.166465 -11.280169 11.420788 -0.485377 9.329517 -1.578503 -9.130797 -1.308635 -3.286625 0.056358 0.212540 -0.054383 -6.162262 -20.954303 7.792637 -5.420805 24.133986 -1.458147 3.852419 -5.346966 -1.979156 -0.058446 0.029404 -0.048731
-2.290478 87.805642 -1.003132 -33.069530 3.394974 -5.198318 -2.035570 15.329437 -3.636239 -1.048922 8.785210 -2.028693 -1.364490 10.975137 -2.568966 -1.048937 8.785212 -2.028685 8.742364 18.058133 -1.581706 16.575445 -1.586667 -5.708989 10.489547 -0.325588 -2.584884 8.267942 -10.697582 88.510709 28.772796 4.675417 9.248447 -0.112162 -3.017373 -4.046933 -7.378171 -0.839225 -5.502477 3.802004 -34.400979 -65.001666 -0.364473 -7.896582 1.537731 -8.237255 -7.554299 17.948217 -8.238137 -11.568514 11.565120 -0.503669 9.251435 -1.651926 -9.282017 -1.214406 -3.286156 0.059956 0.218657 -0.047368 -6.260069 -21.344895 7.876497 -5.496399 24.172507 -1.477400 3.766673 -5.249728 -1.979224 -0.060334 0.035603 -0.048496
-2.252397 87.784623 -1.130465 -32.887219 3.643043 -5.230865 -2.046004 15.409229 -3.661861 -1.052786 8.831984 -2.042434 -1.369985 11.033534 -2.586513 -1.052800 8.831985 -2.042427 8.722967 18.063339 -1.567203 16.534743 -1.581695 -5.675812 10.573398 -0.302008 -2.576272 8.289394 -10.753373 88.483987 28.694572 4.653997 9.182102 -0.124585 -3.022543 -4.041643 -7.350648 -0.835979 -5.415579 3.491433 -34.653389 -64.749950 -0.535260 -7.751894 1.565153 -8.232354 -7.570412 17.997484 -8.301440 -11.866888 11.695284 -0.522292 9.211383 -1.722602 -9.416791 -1.136682 -3.278310 0.063605 0.221647 -0.041501 -6.337244 -21.720837 7.950170 -5.575666 24.202599 -1.496805 3.666785 -5.154318 -1.976677 -0.062380 0.041863 -0.048564
-2.215081 87.765125 -1.249980 -32.714927 3.886781 -5.258018 -2.057176 15.485263 -3.687089 -1.057113 8.876435 -2.055294 -1.376028 11.089026 -2.602957 -1.057126 8.876436 -2.055288 8.696713 18.067381 -1.553897 16.481966 -1.579523 -5.642865 10.655239 -0.288051 -2.577734 8.303867 -10.811023 88.474239 28.580743 4.640417 9.105257 -0.139001 -3.026824 -4.035733 -7.323169 -0.837906 -5.333817 3.207025 -34.897854 -64.514090 -0.692050 -7.586901 1.586128 -8.220658 -7.583791 18.022090 -8.359695 -12.176489 11.813309 -0.547068 9.207024 -1.787717 -9.541251 -1.074172 -3.267949 0.066988 0.220486 -0.036099 -6.405500 -22.082912 8.018973 -5.651563 24.222891 -1.522821 3.563172 -5.059917 -1.965982 -0.063984 0.048423 -0.049895
-2.177975 87.747274 -1.361958 -32.553492 4.128914 -5.279548 -2.067243 15.555159 -3.712399 -1.060852 8.916999 -2.067580 -1.381295 11.139665 -2.618650 -1.060863 8.917000 -2.067575 8.663336 18.072424 -1.539299 16.415620 -1.576564 -5.605226 10.730146 -0.278008 -2.585588 8.319331 -10.866720 88.474302 28.441354 4.622842 9.020791 -0.153804 -3.030472 -4.030367 -7.305823 -0.839139 -5.255401 2.943033 -35.131627 -64.287558 -0.832182 -7.421577 1.599439 -8.203519 -7.592716 18.025016 -8.410127 -12.497571 11.922447 -0.579072 9.230466 -1.848572 -9.671069 -1.023552 -3.258685 0.068847 0.215294 -0.030429 -6.472871 -22.435399 8.082896 -5.710263 24.237997 -1.550321 3.458999 -4.966086 -1.948190 -0.064661 0.053326 -0.051875
-2.141253 87.731060 -1.465899 -32.404072 4.365966 -5.296252 -2.076850 15.618482 -3.739104 -1.064015 8.953364 -2.080090 -1.385821 11.185058 -2.634591 -1.064025 8.953365 -2.080085 8.625255 18.079932 -1.522136 16.339589 -1.569991 -5.561116 10.801002 -0.263695 -2.597357 8.345937 -10.921759 88.481006 28.281948 4.592862 8.925319 -0.170215 -3.033783 -4.022800 -7.298320 -0.839360 -5.181721 2.686966 -35.349146 -64.062847 -0.954653 -7.277276 1.608178 -8.179644 -7.592325 18.010523 -8.449822 -12.823734 12.023565 -0.618863 9.276100 -1.908672 -9.803611 -0.983129 -3.249662 0.069493 0.207060 -0.023651 -6.535995 -22.776589 8.141331 -5.749274 24.251949 -1.574556 3.344398 -4.874445 -1.926155 -0.065307 0.055414 -0.053978
-2.105799 87.716397 -1.561140 -32.263244 4.591674 -5.311253 -2.087685 15.677672 -3.766971 -1.067365 8.987384 -2.092385 -1.390563 11.227519 -2.650257 -1.067374 8.987385 -2.092380 8.584615 18.088575 -1.504089 16.258475 -1.561731 -5.514450 10.871333 -0.247712 -2.613198 8.388650 -10.977268 88.492218 28.101484 4.544108 8.819101 -0.183657 -3.039013 -4.014683 -7.295040 -0.845636 -5.111550 2.430344 -35.543401 -63.842334 -1.055829 -7.169001 1.615018 -8.150556 -7.586677 17.982382 -8.485402 -13.142623 12.116029 -0.665949 9.338049 -1.966855 -9.920618 -0.952015 -3.238997 0.069828 0.196904 -0.016257 -6.589714 -23.099004 8.194187 -5.785602 24.262406 -1.597704 3.224614 -4.786847 -1.902812 -0.066383 0.056603 -0.055127
-2.071700 87.703163 -1.647514 -32.126335 4.804754 -5.324367 -2.101145 15.734557 -3.795747 -1.071829 9.020300 -2.104371 -1.396689 11.268595 -2.665561 -1.071837 9.020301 -2.104367 8.542789 18.096571 -1.486386 16.175367 -1.554712 -5.468135 10.939408 -0.238392 -2.632651 8.449995 -11.029733 88.506322 27.902469 4.475908 8.704270 -0.188572 -3.045656 -4.008240 -7.294287 -0.862019 -5.039494 2.174761 -35.713100 -63.634379 -1.129630 -7.105506 1.616278 -8.121941 -7.585732 17.944981 -8.528436 -13.446593 12.198935 -0.715366 9.409181 -2.019535 -10.017406 -0.929600 -3.225774 0.069415 0.186329 -0.010778 -6.637017 -23.400452 8.239491 -5.831468 24.267402 -1.622926 3.114762 -4.702545 -1.880105 -0.067491 0.057503 -0.054329
